<?xml version="1.0" encoding="utf-8"?>
<!-- Generator: Adobe Illustrator 25.0.0, SVG Export Plug-In . SVG Version: 6.00 Build 0)  -->
<svg version="1.1" id="Camada_1" xmlns="http://www.w3.org/2000/svg" xmlns:xlink="http://www.w3.org/1999/xlink" x="0px" y="0px"
	 viewBox="0 0 512 512" style="enable-background:new 0 0 512 512;" xml:space="preserve">
<style type="text/css">
	.st0{fill:#705D97;}
</style>
<g id="Camada_2_1_">
	<path class="st0" d="M0,286.7l225.9,225L71,511.9C31.8,512,0,480.2,0,441V286.7z"/>
	<path class="st0" d="M286.7,0l225,225.9L511.9,71C512,31.8,480.2,0,441,0H286.7z"/>
</g>
<g>
	<path class="st0" d="M476.1,308.1L369.6,201.6l-168,168l106.5,106.5c46.4,46.4,121.6,46.4,168,0
		C522.5,429.7,522.5,354.5,476.1,308.1z"/>
	<path class="st0" d="M310.4,142.4L203.9,35.9c-46.4-46.4-121.6-46.4-168,0c-46.4,46.4-46.4,121.6,0,168l106.5,106.5L310.4,142.4z"
		/>
</g>
</svg>
