<svg width="16" height="16" viewBox="0 0 16 16" fill="none" xmlns="http://www.w3.org/2000/svg">
<g clip-path="url(#clip0)">
<path d="M12.9728 10.9736L10.4 9.49521C10.2584 9.41441 10.2176 9.28561 10.2056 9.21681C10.1936 9.14801 10.1896 9.01361 10.2952 8.88881L11.344 7.65922C12.0248 6.86402 12.4 5.84882 12.4 4.80002V4.40002C12.4 3.18802 11.8928 2.01842 11.0088 1.18882C10.112 0.348021 8.93845 -0.0703788 7.70885 0.00882121C5.40485 0.158421 3.60085 2.14722 3.60085 4.53682V4.80002C3.60085 5.84882 3.97605 6.86402 4.65605 7.65922L5.70485 8.88881C5.81125 9.01281 5.80645 9.14721 5.79445 9.21681C5.78245 9.28561 5.74165 9.41441 5.59925 9.49521L3.02885 10.9728C1.65365 11.7536 0.800049 13.2208 0.800049 14.8008V16H1.60005V14.8008C1.60005 13.508 2.29925 12.308 3.42645 11.6672L5.99845 10.1888C6.30885 10.0104 6.52165 9.70561 6.58245 9.35281C6.64325 9.00081 6.54565 8.64161 6.31285 8.36961L5.26325 7.14002C4.70645 6.48882 4.39925 5.65762 4.39925 4.80002V4.53682C4.39925 2.56802 5.87525 0.92962 7.75925 0.80722C8.76885 0.742421 9.72725 1.08482 10.4608 1.77202C11.1952 2.46082 11.6 3.39442 11.6 4.40002V4.80002C11.6 5.65762 11.2936 6.48882 10.736 7.14002L9.68725 8.36961C9.45525 8.64241 9.35685 9.00081 9.41765 9.35281C9.47925 9.70561 9.69205 10.0104 10.0024 10.1888L12.5768 11.668C13.7016 12.3072 14.4008 13.5072 14.4008 14.8008V16H15.2008V14.8008C15.2 13.2208 14.3456 11.7536 12.9728 10.9736Z" fill="#D0D0D0"/>
</g>
<defs>
<clipPath id="clip0">
<rect width="16" height="16" fill="white"/>
</clipPath>
</defs>
</svg>
