<?xml version="1.0" encoding="utf-8"?>
<!-- Generator: Adobe Illustrator 25.0.0, SVG Export Plug-In . SVG Version: 6.00 Build 0)  -->
<svg version="1.1" id="Camada_1" xmlns="http://www.w3.org/2000/svg" xmlns:xlink="http://www.w3.org/1999/xlink" x="0px" y="0px"
	 viewBox="0 0 16 16" style="enable-background:new 0 0 16 16;" xml:space="preserve">
<style type="text/css">
	.st0{fill:#FFFFFF;}
</style>
<path class="st0" d="M12.9,1.4l-0.7,0.8c1.6,1.5,2.6,3.5,2.6,5.9c0,2.3-1,4.4-2.6,5.9l0.7,0.8c0.9-0.8,1.7-1.9,2.2-3
	c0.5-1.1,0.8-2.4,0.8-3.6s-0.3-2.5-0.8-3.6C14.6,3.2,13.9,2.2,12.9,1.4L12.9,1.4z M10.7,4L10,4.8c0.4,0.4,0.8,0.9,1,1.5
	c0.2,0.5,0.3,1.1,0.3,1.7S11.2,9.2,11,9.7c-0.2,0.5-0.6,1-1,1.5l0.7,0.8c1-1,1.7-2.4,1.7-4S11.7,5,10.7,4L10.7,4z M0,5v6h2.8L8,14V2
	L2.8,5H0z M7,3.7v8.5L3.1,10H1V6h2.1L7,3.7z"/>
</svg>
