<svg width="16" height="16" viewBox="0 0 16 16" fill="none" xmlns="http://www.w3.org/2000/svg">
<path d="M10.04 5.98398L10.698 5.21398C11.0633 5.57932 11.3493 6.00532 11.556 6.49198C11.7627 6.97865 11.866 7.49198 11.866 8.03198C11.866 8.39198 11.818 8.74365 11.722 9.08698C11.6267 9.43098 11.4933 9.74998 11.322 10.044C11.1493 10.3373 10.9413 10.6056 10.698 10.849L10.04 10.079C10.59 9.50232 10.865 8.81998 10.865 8.03198C10.865 7.24332 10.59 6.56065 10.04 5.98398ZM0 11.032V5.03198H2.802L8 2.03198V14.032L2.802 11.032H0ZM7 12.302V3.76198L3.071 6.03198H1V10.032H3.071L7 12.302Z" fill="white"/>
</svg>
