<svg width="16" height="16" viewBox="0 0 16 16" fill="none" xmlns="http://www.w3.org/2000/svg">
<path d="M0 11.032V5.03198H2.802L8 2.03198V14.032L2.802 11.032H0ZM7 12.302V3.76198L3.071 6.03198H1V10.032H3.071L7 12.302ZM11.464 9.98798C11.7313 9.37132 11.865 8.71932 11.865 8.03198C11.865 7.34398 11.7317 6.69165 11.465 6.07498C11.197 5.45898 10.8223 4.91798 10.341 4.45198L11 3.68998C11.582 4.24598 12.0383 4.89832 12.369 5.64698C12.6997 6.39565 12.865 7.19065 12.865 8.03198C12.865 8.87332 12.6997 9.66832 12.369 10.417C12.0383 11.1656 11.582 11.8176 11 12.373L10.341 11.611C10.8223 11.1456 11.1967 10.6046 11.464 9.98798V9.98798Z" fill="white"/>
</svg>
