<?xml version="1.0" encoding="utf-8"?>
<!-- Generator: Adobe Illustrator 25.0.0, SVG Export Plug-In . SVG Version: 6.00 Build 0)  -->
<svg version="1.1" id="Camada_1" xmlns="http://www.w3.org/2000/svg" xmlns:xlink="http://www.w3.org/1999/xlink" x="0px" y="0px"
	 viewBox="0 0 300 300" style="enable-background:new 0 0 300 300;" xml:space="preserve">
<style type="text/css">
	.st0{fill:url(#SVGID_1_);}
</style>
<g>
	<g>
		<g>
			<linearGradient id="SVGID_1_" gradientUnits="userSpaceOnUse" x1="54.1037" y1="17.1089" x2="200.7079" y2="271.0349">
				<stop  offset="0" style="stop-color:#E994FF"/>
				<stop  offset="1" style="stop-color:#F015FF"/>
			</linearGradient>
			<path class="st0" d="M241.6,83.2c-3.4-29.9-28.9-53.3-59.7-53.3c-6,0-11.9,0.9-17.7,2.6c-13.8-19.9-36.8-32.1-61.3-32.1
				C61.7,0.5,28.1,34.1,28.1,75.3c0,5.7,0.7,11.3,1.9,16.9C11.9,103.3,0.4,123.3,0.4,145c0,34.1,27.7,61.9,61.8,61.9h22.6v62.6
				c-6.7,3.9-21,9.5-40.1,2.4c-6.5-2.4-13.7,0.9-16.1,7.3c-2.4,6.5,0.9,13.7,7.3,16.2c9.7,3.6,18.6,5,26.6,5
				c25.8,0,42.1-14.2,43-15.1c2.6-2.4,4.2-5.8,4.2-9.3V159.9l83.5-18.7V246c-6.2,4.7-19.8,12.9-37.2,12c-6.9-0.3-12.7,5-13.1,11.9
				c-0.3,6.9,5,12.7,11.9,13.1c35.5,1.7,58.7-21.4,59.7-22.4c2.3-2.3,3.7-5.5,3.7-8.8V207h20.4c34.1,0,61.8-27.8,61.8-61.9
				C300.5,111.9,274.4,84.7,241.6,83.2L241.6,83.2z M238.7,181.8h-20.4v-56.3c0-3.8-3.2-13.7-15.2-12.2L94.7,137.5
				c-5.7,1.3-9.8,6.4-9.8,12.2v32H62.3c-20.3,0-36.8-16.6-36.8-36.8c0-15.3,9.7-29.2,24.1-34.4c3.2-1.2,10.8-6.8,7.3-16.5
				c-2.2-6.1-3.7-12.2-3.7-18.7c0-27.5,22.3-49.9,49.8-49.9c19.2,0,35.9,11,44.8,28.3c4.2,8.1,12.6,8.1,17.3,5.5
				c5.2-2.9,10.9-4.3,16.9-4.3c19.3,0,35.1,16.3,35.1,35.1c0,8-0.5,8.7,1.3,11.8c5.1,9,20.4,6.2,20.4,6.2
				c20.3,0,36.8,16.6,36.8,36.8C275.5,165.2,259,181.8,238.7,181.8L238.7,181.8z"/>
		</g>
	</g>
</g>
</svg>
